<svg xmlns="http://www.w3.org/2000/svg" width="1200" height="630" viewBox="0 0 1200 630" role="img" aria-label="FIRE!!! — Devoted to Younger Black American Artists. Call for Proposals, June 15 to August 14, 2026.">
  <rect width="1200" height="630" fill="#d73337"></rect>
  <g font-family="&#39;Big Shoulders&#39;,&#39;Oswald&#39;,Impact,sans-serif" font-weight="900">
    <text x="80" y="92" font-size="26" letter-spacing="6" fill="#201514" font-weight="700">CULTURE  ·  POLITICS  ·  ECONOMICS</text>
    <text x="72" y="360" font-size="300" letter-spacing="2" fill="#201514">FIRE!!!</text>
  </g>
  <text x="80" y="440" font-family="&#39;Newsreader&#39;,Georgia,serif" font-style="italic" font-size="44" fill="#201514">Devoted to Younger Black American Artists</text>
  <line x1="80" y1="486" x2="1120" y2="486" stroke="#201514" stroke-width="6"></line>
  <text x="80" y="540" font-family="&#39;Big Shoulders&#39;,&#39;Oswald&#39;,Impact,sans-serif" font-weight="700" font-size="34" letter-spacing="3" fill="#201514">CALL FOR PROPOSALS · JUNE 15 — AUGUST 14, 2026</text>
  <g fill="#201514">
    <path d="M0 630 L0 600 L40 570 L80 600 L120 570 L160 600 L200 570 L240 600 L280 570 L320 600 L360 570 L400 600 L440 570 L480 600 L520 570 L560 600 L600 570 L640 600 L680 570 L720 600 L760 570 L800 600 L840 570 L880 600 L920 570 L960 600 L1000 570 L1040 600 L1080 570 L1120 600 L1160 570 L1200 600 L1200 630 Z"></path>
  </g>
</svg>